<svg width="24" height="25" viewBox="0 0 24 25" fill="none" xmlns="http://www.w3.org/2000/svg">
<path d="M15.96 6.86L17.64 8.54L13.2 12.98V18.5H10.8V12.02L15.96 6.86ZM12 0.5C10.34 0.5 8.78 0.814999 7.32 1.445C5.86 2.075 4.59 2.93 3.51 4.01C2.43 5.09 1.575 6.36 0.945 7.82C0.315 9.28 0 10.84 0 12.5C0 14.16 0.315 15.72 0.945 17.18C1.575 18.64 2.43 19.91 3.51 20.99C4.59 22.07 5.86 22.925 7.32 23.555C8.78 24.185 10.34 24.5 12 24.5C13.66 24.5 15.22 24.185 16.68 23.555C18.14 22.925 19.41 22.07 20.49 20.99C21.57 19.91 22.425 18.64 23.055 17.18C23.685 15.72 24 14.16 24 12.5C24 10.84 23.685 9.28 23.055 7.82C22.425 6.36 21.57 5.09 20.49 4.01C19.41 2.93 18.14 2.075 16.68 1.445C15.22 0.814999 13.66 0.5 12 0.5Z" fill="black"/>
</svg>
