<svg width="25" height="23" viewBox="0 0 25 23" fill="none" xmlns="http://www.w3.org/2000/svg">
<path d="M4.5 19.75V21.125C4.5 21.5146 4.37222 21.8411 4.11667 22.1047C3.86111 22.3682 3.54444 22.5 3.16667 22.5H1.83333C1.45556 22.5 1.13889 22.3682 0.883333 22.1047C0.627778 21.8411 0.5 21.5146 0.5 21.125V10.125L3.3 1.875C3.43333 1.4625 3.67222 1.13021 4.01667 0.878125C4.36111 0.626042 4.74444 0.5 5.16667 0.5H19.8333C20.2556 0.5 20.6389 0.626042 20.9833 0.878125C21.3278 1.13021 21.5667 1.4625 21.7 1.875L24.5 10.125V21.125C24.5 21.5146 24.3722 21.8411 24.1167 22.1047C23.8611 22.3682 23.5444 22.5 23.1667 22.5H21.8333C21.4556 22.5 21.1389 22.3682 20.8833 22.1047C20.6278 21.8411 20.5 21.5146 20.5 21.125V19.75H4.5ZM4.23333 7.375H20.7667L19.3667 3.25L21 7.54692L4.23333 7.375ZM2.5 13.2188H22.5V10.125L17.5 13.2188H7.5L2.5 10.125V13.2188Z" fill="black"/>
</svg>
