<svg width="159" height="62" viewBox="0 0 159 62" fill="none" xmlns="http://www.w3.org/2000/svg">
<path fill-rule="evenodd" clip-rule="evenodd" d="M72.3083 0.252895C72.0673 0.527654 71.0565 4.97294 68.3878 17.498C65.0777 33.0331 64.0589 37.6724 63.9342 37.78C63.8633 37.8411 63.7649 37.7836 63.715 37.6523C63.5099 37.1104 62.7232 36.3669 61.8325 35.873C61.017 35.421 60.538 35.3267 58.403 35.1978C54.857 34.9837 54.5348 34.7951 52.3004 31.6239C50.2667 28.7377 49.1464 27.8438 47.5624 27.8438C46.1303 27.8438 45.3381 28.3668 42.3019 31.3171C38.3163 35.1898 38.8218 35.0225 30.5221 35.2199C27.0513 35.3024 18.8892 35.3776 12.384 35.387L0.5565 35.4041L0.221199 35.8882C-0.0442667 36.2712 -0.064042 36.4606 0.125696 36.7962L0.365714 37.2202L18.5993 37.1531L36.8327 37.0859L38.2171 36.6259C40.0974 36.0012 41.9405 34.6417 44.1772 32.2298C47.4286 28.7235 47.8992 28.7578 50.7013 32.7037C53.2615 36.3094 54.0139 36.7697 57.6846 36.9775C60.5496 37.1398 61.0858 37.4231 62.525 39.5366C63.9306 41.6008 64.9437 41.7454 65.4937 39.9604C65.642 39.4787 66.5232 35.5484 67.4519 31.226C69.5165 21.6154 72.4876 7.58902 72.4876 7.45174C72.4876 7.39643 72.5822 7.35126 72.6979 7.35126C72.8136 7.35126 72.9085 7.77643 72.9089 8.2963C72.9093 9.30263 73.4928 14.6118 74.9258 26.65C75.1016 28.1273 75.4289 30.9027 75.6532 32.8177C75.8774 34.7326 76.1559 37.0157 76.272 37.8911C76.3881 38.7665 76.7712 41.8105 77.1235 44.6556C78.4448 55.3274 79.2445 61.1409 79.4387 61.4841C79.7643 62.0595 80.5064 62.1775 80.9008 61.7167C81.0925 61.4931 81.6362 59.5431 82.1426 57.2646C82.6381 55.0349 83.1665 52.7183 83.3167 52.1164C83.4671 51.5146 84.2778 47.9232 85.1186 44.1355L86.6473 37.2486L88.7704 37.1366C92.6974 36.9293 93.2841 36.5801 96.4062 32.5891C97.2928 31.4556 98.3107 30.4071 98.8913 30.0293C99.7613 29.4633 100.002 29.3994 100.975 29.4756C102.412 29.5884 103.108 30.1011 105.539 32.8366C108.355 36.0053 109.478 36.6963 112.309 37.0043C113.281 37.11 123.725 37.1923 136.251 37.1931C160.684 37.1949 159.273 37.2671 158.816 36.0388L158.617 35.5036L135.378 35.4041C114.438 35.3144 112.049 35.2722 111.234 34.976C109.767 34.4438 108.776 33.6756 107.332 31.952C106.584 31.0597 105.37 29.782 104.633 29.1127C103.52 28.102 103.105 27.8577 102.184 27.6709C100.647 27.3589 99.8658 27.3947 98.8869 27.8213C97.5837 28.3893 96.2234 29.6525 94.4848 31.9088C93.6089 33.0455 92.616 34.1954 92.2782 34.4642C91.5784 35.0213 89.4256 35.4041 86.9933 35.4041C85.0871 35.4041 84.8755 35.608 84.4043 37.9022C84.0139 39.8018 81.2631 52.5042 80.8615 54.2618C80.7294 54.84 80.5548 55.2428 80.4736 55.1571C80.3926 55.0715 80.2212 54.0165 80.0929 52.8128C79.9648 51.6091 79.4816 47.6073 79.0192 43.9198C78.2174 37.5226 76.6736 24.5184 74.7962 8.34604C74.2204 3.38686 73.8277 0.735167 73.6247 0.437529C73.2844 -0.061056 72.6607 -0.148598 72.3083 0.252895Z" fill="#F2F6F6"/>
</svg>
