<svg width="48" height="48" viewBox="0 0 48 48" fill="none" xmlns="http://www.w3.org/2000/svg">
<path d="M17.755 14.7256C17.4293 14.7256 16.9028 14.8475 16.4562 15.335C16.0097 15.8205 14.75 16.9965 14.75 19.3911C14.75 21.7857 16.4943 24.1004 16.7381 24.4261C16.9799 24.7498 20.1051 29.819 25.0522 31.769C29.1628 33.3895 29.9977 33.0697 30.8908 32.9878C31.7839 32.9078 33.772 31.8128 34.1776 30.676C34.5832 29.5391 34.5842 28.5612 34.4633 28.3604C34.3424 28.1576 34.0177 28.0366 33.5302 27.7929C33.0446 27.5491 30.6518 26.3742 30.2053 26.2123C29.7587 26.0505 29.4321 25.9686 29.1084 26.4561C28.7847 26.9436 27.8544 28.0367 27.5697 28.3604C27.285 28.686 27.0022 28.7298 26.5147 28.486C26.0272 28.2403 24.4598 27.7251 22.5995 26.0676C21.1526 24.7786 20.1763 23.1883 19.8916 22.7008C19.6089 22.2152 19.8649 21.9485 20.1087 21.7067C20.3271 21.4883 20.5924 21.1383 20.8361 20.8536C21.0779 20.5689 21.1618 20.3661 21.3236 20.0424C21.4855 19.7187 21.4026 19.433 21.2817 19.1893C21.1608 18.9455 20.2141 16.542 19.7812 15.5787C19.4165 14.7695 19.0314 14.7507 18.6843 14.737C18.4015 14.7253 18.0787 14.7256 17.755 14.7256Z" fill="black"/>
<circle cx="24.5" cy="23.5" r="17.5" stroke="black" stroke-width="4"/>
</svg>
